<mxfile host="app.diagrams.net" modified="2023-09-04T07:16:42.743Z" agent="Mozilla/5.0 (Windows NT 10.0; Win64; x64; rv:109.0) Gecko/20100101 Firefox/117.0" version="21.6.9" etag="SM9ccH8dBia-WoWc75k3" type="github">
  <diagram name="第 1 页" id="PnaGG6Pf-Q-ecVbM1nB3">
    <mxGraphModel>
      <root>
        <mxCell id="0" />
        <mxCell id="1" parent="0" />
      </root>
    </mxGraphModel>
  </diagram>
</mxfile>
